<?xml version="1.0" encoding="UTF-8" standalone="no"?>
<!DOCTYPE svg PUBLIC "-//W3C//DTD SVG 1.1//EN"
 "http://www.w3.org/Graphics/SVG/1.1/DTD/svg11.dtd">
<!-- Generated by graphviz version 12.1.1 (20240910.0053)
 -->
<!-- Title: INFRA Pages: 1 -->
<svg width="1702pt" height="188pt"
 viewBox="0.00 0.00 1702.17 188.00" xmlns="http://www.w3.org/2000/svg" xmlns:xlink="http://www.w3.org/1999/xlink">
<g id="graph0" class="graph" transform="scale(1 1) rotate(0) translate(4 184)">
<title>INFRA</title>
<polygon fill="white" stroke="none" points="-4,4 -4,-184 1698.17,-184 1698.17,4 -4,4"/>
<!-- prometheus -->
<g id="node1" class="node">
<title>prometheus</title>
<path fill="#e6e6e6" stroke="black" stroke-width="2" d="M168.94,-72C168.94,-72 12,-72 12,-72 6,-72 0,-66 0,-60 0,-60 0,-12 0,-12 0,-6 6,0 12,0 12,0 168.94,0 168.94,0 174.94,0 180.94,-6 180.94,-12 180.94,-12 180.94,-60 180.94,-60 180.94,-66 174.94,-72 168.94,-72"/>
<text text-anchor="middle" x="90.47" y="-40.2" font-family="Arial" font-size="14.00">prometheus</text>
<text text-anchor="middle" x="90.47" y="-23.4" font-family="Arial" font-size="14.00">(docker&#45;compose::service)</text>
</g>
<!-- alertmanager -->
<g id="node2" class="node">
<title>alertmanager</title>
<path fill="#e6e6e6" stroke="black" stroke-width="2" d="M367.94,-180C367.94,-180 211,-180 211,-180 205,-180 199,-174 199,-168 199,-168 199,-120 199,-120 199,-114 205,-108 211,-108 211,-108 367.94,-108 367.94,-108 373.94,-108 379.94,-114 379.94,-120 379.94,-120 379.94,-168 379.94,-168 379.94,-174 373.94,-180 367.94,-180"/>
<text text-anchor="middle" x="289.47" y="-148.2" font-family="Arial" font-size="14.00">alertmanager</text>
<text text-anchor="middle" x="289.47" y="-131.4" font-family="Arial" font-size="14.00">(docker&#45;compose::service)</text>
</g>
<!-- grafana -->
<g id="node3" class="node">
<title>grafana</title>
<path fill="#e6e6e6" stroke="black" stroke-width="2" d="M168.94,-180C168.94,-180 12,-180 12,-180 6,-180 0,-174 0,-168 0,-168 0,-120 0,-120 0,-114 6,-108 12,-108 12,-108 168.94,-108 168.94,-108 174.94,-108 180.94,-114 180.94,-120 180.94,-120 180.94,-168 180.94,-168 180.94,-174 174.94,-180 168.94,-180"/>
<text text-anchor="middle" x="90.47" y="-148.2" font-family="Arial" font-size="14.00">grafana</text>
<text text-anchor="middle" x="90.47" y="-131.4" font-family="Arial" font-size="14.00">(docker&#45;compose::service)</text>
</g>
<!-- grafana&#45;&gt;prometheus -->
<g id="edge1" class="edge">
<title>grafana&#45;&gt;prometheus</title>
<path fill="none" stroke="black" d="M90.47,-107.7C90.47,-99.93 90.47,-91.57 90.47,-83.43"/>
<polygon fill="black" stroke="black" points="93.97,-83.66 90.47,-73.66 86.97,-83.66 93.97,-83.66"/>
</g>
<!-- monitoring&#45;network -->
<g id="node4" class="node">
<title>monitoring&#45;network</title>
<path fill="#e6e6e6" stroke="black" stroke-width="2" d="M571.28,-180C571.28,-180 409.66,-180 409.66,-180 403.66,-180 397.66,-174 397.66,-168 397.66,-168 397.66,-120 397.66,-120 397.66,-114 403.66,-108 409.66,-108 409.66,-108 571.28,-108 571.28,-108 577.28,-108 583.28,-114 583.28,-120 583.28,-120 583.28,-168 583.28,-168 583.28,-174 577.28,-180 571.28,-180"/>
<text text-anchor="middle" x="490.47" y="-148.2" font-family="Arial" font-size="14.00">monitoring&#45;network</text>
<text text-anchor="middle" x="490.47" y="-131.4" font-family="Arial" font-size="14.00">(docker&#45;compose::network)</text>
</g>
<!-- grafana&#45;storage -->
<g id="node5" class="node">
<title>grafana&#45;storage</title>
<path fill="#fff5cd" stroke="black" stroke-width="2" d="M783.33,-173.45C783.33,-177.07 742.6,-180 692.47,-180 642.33,-180 601.61,-177.07 601.61,-173.45 601.61,-173.45 601.61,-114.55 601.61,-114.55 601.61,-110.93 642.33,-108 692.47,-108 742.6,-108 783.33,-110.93 783.33,-114.55 783.33,-114.55 783.33,-173.45 783.33,-173.45"/>
<path fill="none" stroke="black" stroke-width="2" d="M783.33,-173.45C783.33,-169.84 742.6,-166.91 692.47,-166.91 642.33,-166.91 601.61,-169.84 601.61,-173.45"/>
<text text-anchor="middle" x="692.47" y="-148.2" font-family="Arial" font-size="14.00">grafana&#45;storage</text>
<text text-anchor="middle" x="692.47" y="-131.4" font-family="Arial" font-size="14.00">(docker&#45;compose::volume)</text>
</g>
<!-- auth&#45;service -->
<g id="node6" class="node">
<title>auth&#45;service</title>
<path fill="#b7e0ff" stroke="black" stroke-width="2" d="M959.51,-180C959.51,-180 813.43,-180 813.43,-180 807.43,-180 801.43,-174 801.43,-168 801.43,-168 801.43,-120 801.43,-120 801.43,-114 807.43,-108 813.43,-108 813.43,-108 959.51,-108 959.51,-108 965.51,-108 971.51,-114 971.51,-120 971.51,-120 971.51,-168 971.51,-168 971.51,-174 965.51,-180 959.51,-180"/>
<text text-anchor="middle" x="886.47" y="-148.2" font-family="Arial" font-size="14.00">auth&#45;service</text>
<text text-anchor="middle" x="886.47" y="-131.4" font-family="Arial" font-size="14.00">(spring&#45;boot::application)</text>
</g>
<!-- hazelcast&#45;instance -->
<g id="node7" class="node">
<title>hazelcast&#45;instance</title>
<path fill="#fff5cd" stroke="black" stroke-width="2" d="M1316.44,-65.45C1316.44,-69.07 1286.87,-72 1250.47,-72 1214.06,-72 1184.49,-69.07 1184.49,-65.45 1184.49,-65.45 1184.49,-6.55 1184.49,-6.55 1184.49,-2.93 1214.06,0 1250.47,0 1286.87,0 1316.44,-2.93 1316.44,-6.55 1316.44,-6.55 1316.44,-65.45 1316.44,-65.45"/>
<path fill="none" stroke="black" stroke-width="2" d="M1316.44,-65.45C1316.44,-61.84 1286.87,-58.91 1250.47,-58.91 1214.06,-58.91 1184.49,-61.84 1184.49,-65.45"/>
<text text-anchor="middle" x="1250.47" y="-40.2" font-family="Arial" font-size="14.00">hazelcast&#45;instance</text>
<text text-anchor="middle" x="1250.47" y="-23.4" font-family="Arial" font-size="14.00">(hazelcast::config)</text>
</g>
<!-- productCache -->
<g id="node8" class="node">
<title>productCache</title>
<path fill="#fff5cd" stroke="black" stroke-width="2" d="M1151.22,-173.45C1151.22,-177.07 1115.03,-180 1070.47,-180 1025.91,-180 989.72,-177.07 989.72,-173.45 989.72,-173.45 989.72,-114.55 989.72,-114.55 989.72,-110.93 1025.91,-108 1070.47,-108 1115.03,-108 1151.22,-110.93 1151.22,-114.55 1151.22,-114.55 1151.22,-173.45 1151.22,-173.45"/>
<path fill="none" stroke="black" stroke-width="2" d="M1151.22,-173.45C1151.22,-169.84 1115.03,-166.91 1070.47,-166.91 1025.91,-166.91 989.72,-169.84 989.72,-173.45"/>
<text text-anchor="middle" x="1070.47" y="-148.2" font-family="Arial" font-size="14.00">productCache</text>
<text text-anchor="middle" x="1070.47" y="-131.4" font-family="Arial" font-size="14.00">(hazelcast::map&#45;config)</text>
</g>
<!-- productCache&#45;&gt;hazelcast&#45;instance -->
<g id="edge2" class="edge">
<title>productCache&#45;&gt;hazelcast&#45;instance</title>
<path fill="none" stroke="black" d="M1128.41,-108.88C1146.18,-98.41 1165.87,-86.82 1184.16,-76.05"/>
<polygon fill="black" stroke="black" points="1185.72,-79.19 1192.56,-71.1 1182.17,-73.16 1185.72,-79.19"/>
</g>
<!-- userCache -->
<g id="node9" class="node">
<title>userCache</title>
<path fill="#fff5cd" stroke="black" stroke-width="2" d="M1331.22,-173.45C1331.22,-177.07 1295.03,-180 1250.47,-180 1205.91,-180 1169.72,-177.07 1169.72,-173.45 1169.72,-173.45 1169.72,-114.55 1169.72,-114.55 1169.72,-110.93 1205.91,-108 1250.47,-108 1295.03,-108 1331.22,-110.93 1331.22,-114.55 1331.22,-114.55 1331.22,-173.45 1331.22,-173.45"/>
<path fill="none" stroke="black" stroke-width="2" d="M1331.22,-173.45C1331.22,-169.84 1295.03,-166.91 1250.47,-166.91 1205.91,-166.91 1169.72,-169.84 1169.72,-173.45"/>
<text text-anchor="middle" x="1250.47" y="-148.2" font-family="Arial" font-size="14.00">userCache</text>
<text text-anchor="middle" x="1250.47" y="-131.4" font-family="Arial" font-size="14.00">(hazelcast::map&#45;config)</text>
</g>
<!-- userCache&#45;&gt;hazelcast&#45;instance -->
<g id="edge3" class="edge">
<title>userCache&#45;&gt;hazelcast&#45;instance</title>
<path fill="none" stroke="black" d="M1250.47,-107.7C1250.47,-99.93 1250.47,-91.57 1250.47,-83.43"/>
<polygon fill="black" stroke="black" points="1253.97,-83.66 1250.47,-73.66 1246.97,-83.66 1253.97,-83.66"/>
</g>
<!-- userRolesCache -->
<g id="node10" class="node">
<title>userRolesCache</title>
<path fill="#fff5cd" stroke="black" stroke-width="2" d="M1511.22,-173.45C1511.22,-177.07 1475.03,-180 1430.47,-180 1385.91,-180 1349.72,-177.07 1349.72,-173.45 1349.72,-173.45 1349.72,-114.55 1349.72,-114.55 1349.72,-110.93 1385.91,-108 1430.47,-108 1475.03,-108 1511.22,-110.93 1511.22,-114.55 1511.22,-114.55 1511.22,-173.45 1511.22,-173.45"/>
<path fill="none" stroke="black" stroke-width="2" d="M1511.22,-173.45C1511.22,-169.84 1475.03,-166.91 1430.47,-166.91 1385.91,-166.91 1349.72,-169.84 1349.72,-173.45"/>
<text text-anchor="middle" x="1430.47" y="-148.2" font-family="Arial" font-size="14.00">userRolesCache</text>
<text text-anchor="middle" x="1430.47" y="-131.4" font-family="Arial" font-size="14.00">(hazelcast::map&#45;config)</text>
</g>
<!-- userRolesCache&#45;&gt;hazelcast&#45;instance -->
<g id="edge4" class="edge">
<title>userRolesCache&#45;&gt;hazelcast&#45;instance</title>
<path fill="none" stroke="black" d="M1372.52,-108.88C1354.75,-98.41 1335.06,-86.82 1316.78,-76.05"/>
<polygon fill="black" stroke="black" points="1318.77,-73.16 1308.38,-71.1 1315.22,-79.19 1318.77,-73.16"/>
</g>
<!-- LogCleanupTask -->
<g id="node11" class="node">
<title>LogCleanupTask</title>
<path fill="#e6e6e6" stroke="black" stroke-width="2" d="M1682.17,-180C1682.17,-180 1540.77,-180 1540.77,-180 1534.77,-180 1528.77,-174 1528.77,-168 1528.77,-168 1528.77,-120 1528.77,-120 1528.77,-114 1534.77,-108 1540.77,-108 1540.77,-108 1682.17,-108 1682.17,-108 1688.17,-108 1694.17,-114 1694.17,-120 1694.17,-120 1694.17,-168 1694.17,-168 1694.17,-174 1688.17,-180 1682.17,-180"/>
<text text-anchor="middle" x="1611.47" y="-148.2" font-family="Arial" font-size="14.00">LogCleanupTask</text>
<text text-anchor="middle" x="1611.47" y="-131.4" font-family="Arial" font-size="14.00">(spring::scheduled&#45;task)</text>
</g>
</g>
</svg>
